<mxfile host="app.diagrams.net" agent="Mozilla/5.0 (Windows NT 10.0; Win64; x64) AppleWebKit/537.36 (KHTML, like Gecko) Chrome/141.0.0.0 Safari/537.36" version="28.2.8">
  <diagram name="Página-1" id="gKHaCqM_Aak2SQZ0_88f">
    <mxGraphModel dx="1242" dy="785" grid="0" gridSize="10" guides="1" tooltips="1" connect="1" arrows="1" fold="1" page="0" pageScale="1" pageWidth="827" pageHeight="1169" background="light-dark(#FFFFFF,#FFFFFF)" math="0" shadow="0">
      <root>
        <mxCell id="0" />
        <mxCell id="1" parent="0" />
        <mxCell id="zqIMH84tLvvsTfrKgmCo-3" value="" style="edgeStyle=orthogonalEdgeStyle;rounded=0;orthogonalLoop=1;jettySize=auto;html=1;fillColor=none;textShadow=1;strokeColor=light-dark(#000000,#000000);fontColor=light-dark(#000000,#131313);spacingTop=0;fontStyle=1" edge="1" parent="1" source="zqIMH84tLvvsTfrKgmCo-1" target="zqIMH84tLvvsTfrKgmCo-2">
          <mxGeometry relative="1" as="geometry" />
        </mxCell>
        <mxCell id="zqIMH84tLvvsTfrKgmCo-1" value="Inicio" style="rounded=0;html=1;fillColor=none;textShadow=1;whiteSpace=wrap;strokeColor=light-dark(#000000,#000000);fontColor=light-dark(#000000,#131313);spacingTop=0;fontStyle=1" vertex="1" parent="1">
          <mxGeometry x="176" y="234" width="90" height="40" as="geometry" />
        </mxCell>
        <mxCell id="zqIMH84tLvvsTfrKgmCo-5" value="" style="edgeStyle=orthogonalEdgeStyle;rounded=0;orthogonalLoop=1;jettySize=auto;html=1;fillColor=none;textShadow=1;strokeColor=light-dark(#000000,#000000);fontColor=light-dark(#000000,#131313);spacingTop=0;fontStyle=1" edge="1" parent="1" source="zqIMH84tLvvsTfrKgmCo-2" target="zqIMH84tLvvsTfrKgmCo-4">
          <mxGeometry relative="1" as="geometry" />
        </mxCell>
        <mxCell id="zqIMH84tLvvsTfrKgmCo-2" value="Escolha de&lt;div&gt;&amp;nbsp;modo&amp;nbsp;&lt;/div&gt;" style="rhombus;html=1;rounded=0;fillColor=none;textShadow=1;whiteSpace=wrap;strokeColor=light-dark(#000000,#000000);fontColor=light-dark(#000000,#131313);spacingTop=0;fontStyle=1" vertex="1" parent="1">
          <mxGeometry x="316" y="209" width="100" height="90" as="geometry" />
        </mxCell>
        <mxCell id="zqIMH84tLvvsTfrKgmCo-7" value="" style="edgeStyle=orthogonalEdgeStyle;rounded=0;orthogonalLoop=1;jettySize=auto;html=1;fillColor=none;textShadow=1;strokeColor=light-dark(#000000,#000000);fontColor=light-dark(#000000,#131313);spacingTop=0;fontStyle=1" edge="1" parent="1" source="zqIMH84tLvvsTfrKgmCo-4" target="zqIMH84tLvvsTfrKgmCo-6">
          <mxGeometry relative="1" as="geometry" />
        </mxCell>
        <mxCell id="zqIMH84tLvvsTfrKgmCo-4" value="Inicialização de Câmera/vídeo" style="html=1;rounded=0;fillColor=none;textShadow=1;whiteSpace=wrap;strokeColor=light-dark(#000000,#000000);fontColor=light-dark(#000000,#131313);spacingTop=0;fontStyle=1" vertex="1" parent="1">
          <mxGeometry x="466" y="234" width="120" height="40" as="geometry" />
        </mxCell>
        <mxCell id="zqIMH84tLvvsTfrKgmCo-9" value="" style="edgeStyle=orthogonalEdgeStyle;rounded=0;orthogonalLoop=1;jettySize=auto;html=1;fillColor=none;textShadow=1;strokeColor=light-dark(#000000,#000000);fontColor=light-dark(#000000,#131313);spacingTop=0;fontStyle=1" edge="1" parent="1" source="zqIMH84tLvvsTfrKgmCo-6" target="zqIMH84tLvvsTfrKgmCo-8">
          <mxGeometry relative="1" as="geometry" />
        </mxCell>
        <mxCell id="zqIMH84tLvvsTfrKgmCo-6" value="Loop: novo quadro capturado" style="html=1;rounded=0;fillColor=none;textShadow=1;whiteSpace=wrap;strokeColor=light-dark(#000000,#000000);fontColor=light-dark(#000000,#131313);spacingTop=0;fontStyle=1" vertex="1" parent="1">
          <mxGeometry x="466" y="312" width="120" height="40" as="geometry" />
        </mxCell>
        <mxCell id="zqIMH84tLvvsTfrKgmCo-11" value="" style="edgeStyle=orthogonalEdgeStyle;rounded=0;orthogonalLoop=1;jettySize=auto;html=1;fillColor=none;textShadow=1;strokeColor=light-dark(#000000,#000000);fontColor=light-dark(#000000,#131313);spacingTop=0;fontStyle=0" edge="1" parent="1" source="zqIMH84tLvvsTfrKgmCo-8" target="zqIMH84tLvvsTfrKgmCo-10">
          <mxGeometry relative="1" as="geometry" />
        </mxCell>
        <mxCell id="zqIMH84tLvvsTfrKgmCo-8" value="Detecção de pose MediaPipe" style="html=1;rounded=0;fillColor=none;textShadow=1;whiteSpace=wrap;strokeColor=light-dark(#000000,#000000);fontColor=light-dark(#000000,#131313);fontStyle=1" vertex="1" parent="1">
          <mxGeometry x="307" y="312" width="120" height="40" as="geometry" />
        </mxCell>
        <mxCell id="zqIMH84tLvvsTfrKgmCo-12" value="" style="edgeStyle=orthogonalEdgeStyle;rounded=0;orthogonalLoop=1;jettySize=auto;html=1;exitX=1;exitY=0.5;exitDx=0;exitDy=0;entryX=0.5;entryY=1;entryDx=0;entryDy=0;fillColor=none;textShadow=1;strokeColor=light-dark(#000000,#000000);fontColor=light-dark(#000000,#131313);spacingTop=0;fontStyle=0" edge="1" parent="1" source="zqIMH84tLvvsTfrKgmCo-10" target="zqIMH84tLvvsTfrKgmCo-6">
          <mxGeometry relative="1" as="geometry">
            <mxPoint x="531" y="444" as="targetPoint" />
          </mxGeometry>
        </mxCell>
        <mxCell id="zqIMH84tLvvsTfrKgmCo-21" value="" style="edgeStyle=orthogonalEdgeStyle;rounded=0;orthogonalLoop=1;jettySize=auto;html=1;fillColor=none;textShadow=1;strokeColor=light-dark(#000000,#000000);fontColor=light-dark(#000000,#131313);spacingTop=0;fontStyle=0" edge="1" parent="1" source="zqIMH84tLvvsTfrKgmCo-10" target="zqIMH84tLvvsTfrKgmCo-20">
          <mxGeometry relative="1" as="geometry" />
        </mxCell>
        <mxCell id="zqIMH84tLvvsTfrKgmCo-10" value="Pose válida?" style="rhombus;html=1;rounded=0;fillColor=none;textShadow=1;whiteSpace=wrap;strokeColor=light-dark(#000000,#000000);fontColor=light-dark(#000000,#131313);spacingTop=0;fontStyle=1" vertex="1" parent="1">
          <mxGeometry x="317" y="388" width="100" height="90" as="geometry" />
        </mxCell>
        <mxCell id="zqIMH84tLvvsTfrKgmCo-13" value="&lt;font style=&quot;&quot;&gt;Não&lt;/font&gt;" style="text;html=1;align=center;verticalAlign=middle;rounded=0;fillColor=none;textShadow=1;whiteSpace=wrap;strokeColor=none;fontColor=light-dark(#000000,#000000);spacing=2;spacingTop=0;fontStyle=2" vertex="1" parent="1">
          <mxGeometry x="461" y="403" width="60" height="30" as="geometry" />
        </mxCell>
        <mxCell id="zqIMH84tLvvsTfrKgmCo-25" value="" style="edgeStyle=orthogonalEdgeStyle;rounded=0;orthogonalLoop=1;jettySize=auto;html=1;fillColor=none;textShadow=1;strokeColor=light-dark(#000000,#000000);fontColor=light-dark(#000000,#131313);spacingTop=0;fontStyle=0" edge="1" parent="1" source="zqIMH84tLvvsTfrKgmCo-20" target="zqIMH84tLvvsTfrKgmCo-24">
          <mxGeometry relative="1" as="geometry" />
        </mxCell>
        <mxCell id="zqIMH84tLvvsTfrKgmCo-20" value="Analise geométrica da postura" style="rounded=0;html=1;fillColor=none;textShadow=1;whiteSpace=wrap;strokeColor=light-dark(#000000,#000000);fontColor=light-dark(#000000,#131313);fontStyle=1" vertex="1" parent="1">
          <mxGeometry x="307" y="518" width="120" height="40" as="geometry" />
        </mxCell>
        <mxCell id="zqIMH84tLvvsTfrKgmCo-23" value="Sim" style="text;html=1;align=center;verticalAlign=middle;rounded=0;fillColor=none;textShadow=1;whiteSpace=wrap;strokeColor=none;fontColor=light-dark(#000000,#131313);spacingTop=0;fontStyle=2" vertex="1" parent="1">
          <mxGeometry x="367" y="478" width="60" height="30" as="geometry" />
        </mxCell>
        <mxCell id="zqIMH84tLvvsTfrKgmCo-33" value="" style="edgeStyle=orthogonalEdgeStyle;rounded=0;orthogonalLoop=1;jettySize=auto;html=1;fillColor=none;textShadow=1;strokeColor=light-dark(#000000,#000000);fontColor=light-dark(#000000,#131313);spacingTop=0;fontStyle=0" edge="1" parent="1" source="zqIMH84tLvvsTfrKgmCo-24" target="zqIMH84tLvvsTfrKgmCo-32">
          <mxGeometry relative="1" as="geometry" />
        </mxCell>
        <mxCell id="zqIMH84tLvvsTfrKgmCo-36" value="" style="edgeStyle=orthogonalEdgeStyle;rounded=0;orthogonalLoop=1;jettySize=auto;html=1;fillColor=none;textShadow=1;strokeColor=light-dark(#000000,#000000);fontColor=light-dark(#000000,#131313);spacingTop=0;fontStyle=0" edge="1" parent="1" source="zqIMH84tLvvsTfrKgmCo-24" target="zqIMH84tLvvsTfrKgmCo-35">
          <mxGeometry relative="1" as="geometry" />
        </mxCell>
        <mxCell id="zqIMH84tLvvsTfrKgmCo-24" value="Transição de postura" style="rhombus;html=1;rounded=0;fillColor=none;textShadow=1;whiteSpace=wrap;strokeColor=light-dark(#000000,#000000);fontColor=light-dark(#000000,#131313);spacingTop=0;fontStyle=1" vertex="1" parent="1">
          <mxGeometry x="317" y="601" width="100" height="90" as="geometry" />
        </mxCell>
        <mxCell id="zqIMH84tLvvsTfrKgmCo-31" value="Não" style="text;html=1;align=center;verticalAlign=middle;rounded=0;fillColor=none;textShadow=1;whiteSpace=wrap;strokeColor=none;fontColor=light-dark(#000000,#131313);spacingTop=0;fontStyle=2" vertex="1" parent="1">
          <mxGeometry x="367" y="691" width="60" height="30" as="geometry" />
        </mxCell>
        <mxCell id="zqIMH84tLvvsTfrKgmCo-38" value="" style="edgeStyle=orthogonalEdgeStyle;rounded=0;orthogonalLoop=1;jettySize=auto;html=1;exitX=0.5;exitY=1;exitDx=0;exitDy=0;entryX=1;entryY=0.5;entryDx=0;entryDy=0;fillColor=none;textShadow=1;strokeColor=light-dark(#000000,#000000);fontColor=light-dark(#000000,#131313);spacingTop=0;fontStyle=0" edge="1" parent="1" source="zqIMH84tLvvsTfrKgmCo-32" target="zqIMH84tLvvsTfrKgmCo-35">
          <mxGeometry relative="1" as="geometry">
            <mxPoint x="521.1764705882354" y="813.9999999999998" as="targetPoint" />
          </mxGeometry>
        </mxCell>
        <mxCell id="zqIMH84tLvvsTfrKgmCo-32" value="&amp;nbsp;Contador de polichinelos" style="html=1;rounded=0;fillColor=none;textShadow=1;whiteSpace=wrap;strokeColor=light-dark(#000000,#000000);fontColor=light-dark(#000000,#131313);spacingTop=0;fontStyle=1" vertex="1" parent="1">
          <mxGeometry x="481" y="626" width="120" height="40" as="geometry" />
        </mxCell>
        <mxCell id="zqIMH84tLvvsTfrKgmCo-34" value="Sim" style="text;align=center;verticalAlign=middle;rounded=0;fillColor=none;textShadow=1;strokeColor=none;fontColor=light-dark(#000000,#131313);whiteSpace=wrap;html=1;spacingTop=0;fontStyle=2" vertex="1" parent="1">
          <mxGeometry x="416" y="616" width="60" height="30" as="geometry" />
        </mxCell>
        <mxCell id="zqIMH84tLvvsTfrKgmCo-40" value="" style="edgeStyle=orthogonalEdgeStyle;rounded=0;orthogonalLoop=1;jettySize=auto;html=1;fillColor=none;textShadow=1;strokeColor=light-dark(#000000,#000000);fontColor=light-dark(#000000,#131313);spacingTop=0;fontStyle=0" edge="1" parent="1" source="zqIMH84tLvvsTfrKgmCo-35" target="zqIMH84tLvvsTfrKgmCo-39">
          <mxGeometry relative="1" as="geometry" />
        </mxCell>
        <mxCell id="zqIMH84tLvvsTfrKgmCo-35" value="&lt;b&gt;Atualizar feedback visual&lt;/b&gt;" style="html=1;rounded=0;fillColor=none;textShadow=1;whiteSpace=wrap;strokeColor=light-dark(#000000,#000000);fontColor=light-dark(#000000,#131313);fontStyle=0" vertex="1" parent="1">
          <mxGeometry x="307" y="734" width="120" height="40" as="geometry" />
        </mxCell>
        <mxCell id="zqIMH84tLvvsTfrKgmCo-41" value="" style="edgeStyle=orthogonalEdgeStyle;rounded=0;orthogonalLoop=1;jettySize=auto;html=1;exitX=1;exitY=0.5;exitDx=0;exitDy=0;entryX=1;entryY=0.5;entryDx=0;entryDy=0;fillColor=none;textShadow=1;strokeColor=light-dark(#000000,#000000);fontColor=light-dark(#000000,#131313);spacingTop=0;fontStyle=0" edge="1" parent="1" source="zqIMH84tLvvsTfrKgmCo-39" target="zqIMH84tLvvsTfrKgmCo-6">
          <mxGeometry relative="1" as="geometry">
            <mxPoint x="641" y="334" as="targetPoint" />
            <Array as="points">
              <mxPoint x="621" y="852" />
              <mxPoint x="621" y="332" />
            </Array>
          </mxGeometry>
        </mxCell>
        <mxCell id="zqIMH84tLvvsTfrKgmCo-45" value="" style="edgeStyle=orthogonalEdgeStyle;rounded=0;orthogonalLoop=1;jettySize=auto;html=1;fillColor=none;textShadow=1;strokeColor=light-dark(#000000,#000000);fontColor=light-dark(#000000,#131313);spacingTop=0;fontStyle=0" edge="1" parent="1" source="zqIMH84tLvvsTfrKgmCo-39" target="zqIMH84tLvvsTfrKgmCo-44">
          <mxGeometry relative="1" as="geometry" />
        </mxCell>
        <mxCell id="zqIMH84tLvvsTfrKgmCo-39" value="&lt;b&gt;Sessão encerrada?&lt;/b&gt;" style="rhombus;html=1;rounded=0;fillColor=none;textShadow=1;whiteSpace=wrap;strokeColor=light-dark(#000000,#000000);fontColor=light-dark(#000000,#131313);spacingTop=0;fontStyle=0" vertex="1" parent="1">
          <mxGeometry x="317" y="807" width="100" height="90" as="geometry" />
        </mxCell>
        <mxCell id="zqIMH84tLvvsTfrKgmCo-42" value="Não" style="text;html=1;align=center;verticalAlign=middle;rounded=0;fillColor=none;textShadow=1;whiteSpace=wrap;strokeColor=none;fontColor=light-dark(#000000,#131313);spacingTop=0;fontStyle=2" vertex="1" parent="1">
          <mxGeometry x="622" y="584" width="60" height="30" as="geometry" />
        </mxCell>
        <mxCell id="zqIMH84tLvvsTfrKgmCo-47" value="" style="edgeStyle=orthogonalEdgeStyle;rounded=0;orthogonalLoop=1;jettySize=auto;html=1;fillColor=none;textShadow=1;strokeColor=light-dark(#000000,#000000);fontColor=light-dark(#000000,#131313);spacingTop=0;fontStyle=0" edge="1" parent="1" source="zqIMH84tLvvsTfrKgmCo-44" target="zqIMH84tLvvsTfrKgmCo-46">
          <mxGeometry relative="1" as="geometry" />
        </mxCell>
        <mxCell id="zqIMH84tLvvsTfrKgmCo-44" value="&lt;b&gt;Salvar resultado no ranking&lt;/b&gt;" style="html=1;rounded=0;fillColor=none;textShadow=1;whiteSpace=wrap;strokeColor=light-dark(#000000,#000000);fontColor=light-dark(#000000,#131313);fontStyle=0" vertex="1" parent="1">
          <mxGeometry x="307" y="932" width="120" height="40" as="geometry" />
        </mxCell>
        <mxCell id="zqIMH84tLvvsTfrKgmCo-49" value="" style="edgeStyle=orthogonalEdgeStyle;rounded=0;orthogonalLoop=1;jettySize=auto;html=1;fillColor=none;textShadow=1;strokeColor=light-dark(#000000,#000000);fontColor=light-dark(#000000,#131313);spacingTop=0;fontStyle=0" edge="1" parent="1" source="zqIMH84tLvvsTfrKgmCo-46" target="zqIMH84tLvvsTfrKgmCo-48">
          <mxGeometry relative="1" as="geometry" />
        </mxCell>
        <mxCell id="zqIMH84tLvvsTfrKgmCo-46" value="&lt;b&gt;Exibir relatório final&lt;/b&gt;" style="html=1;rounded=0;fillColor=none;textShadow=1;whiteSpace=wrap;strokeColor=light-dark(#000000,#000000);fontColor=light-dark(#000000,#131313);fontStyle=0" vertex="1" parent="1">
          <mxGeometry x="481" y="932" width="120" height="40" as="geometry" />
        </mxCell>
        <mxCell id="zqIMH84tLvvsTfrKgmCo-48" value="&lt;b&gt;Fim&lt;/b&gt;" style="html=1;rounded=0;fillColor=none;textShadow=1;whiteSpace=wrap;strokeColor=light-dark(#000000,#000000);fontColor=light-dark(#000000,#131313);spacingTop=0;fontStyle=0" vertex="1" parent="1">
          <mxGeometry x="655" y="932" width="120" height="40" as="geometry" />
        </mxCell>
        <mxCell id="zqIMH84tLvvsTfrKgmCo-50" value="Sim" style="text;html=1;align=center;verticalAlign=middle;rounded=0;fillColor=none;textShadow=1;whiteSpace=wrap;strokeColor=none;fontColor=light-dark(#000000,#131313);spacingTop=0;fontStyle=2" vertex="1" parent="1">
          <mxGeometry x="367" y="897" width="60" height="30" as="geometry" />
        </mxCell>
      </root>
    </mxGraphModel>
  </diagram>
</mxfile>
